<?xml version="1.0" standalone="no"?>
<!DOCTYPE svg PUBLIC "-//W3C//DTD SVG 20010904//EN"
 "http://www.w3.org/TR/2001/REC-SVG-20010904/DTD/svg10.dtd">
<svg version="1.0" xmlns="http://www.w3.org/2000/svg"
 width="626.000000pt" height="626.000000pt" viewBox="0 0 626.000000 626.000000"
 preserveAspectRatio="xMidYMid meet">

<g transform="translate(0.000000,626.000000) scale(0.100000,-0.100000)"
fill="#000000" stroke="none">
<path d="M0 3130 l0 -3130 3130 0 3130 0 0 3130 0 3130 -3130 0 -3130 0 0
-3130z m3283 2315 c89 -15 232 -63 274 -90 19 -13 31 -14 61 -5 161 44 338
-45 593 -299 209 -210 353 -408 379 -525 8 -38 24 -63 72 -115 251 -273 444
-645 519 -1002 l22 -106 81 -26 c108 -36 217 -101 297 -179 156 -152 232 -332
232 -548 0 -133 -20 -217 -80 -340 -40 -81 -61 -109 -143 -190 -108 -108 -171
-149 -297 -193 -80 -28 -102 -31 -245 -35 l-158 -4 -77 -107 c-93 -129 -322
-361 -448 -454 -284 -209 -580 -336 -940 -402 -121 -23 -450 -31 -586 -16
-533 62 -1021 313 -1371 706 -49 54 -116 138 -150 186 l-61 86 -101 5 c-326
17 -608 254 -692 583 -25 99 -23 265 5 368 56 210 208 396 400 490 l67 32 22
115 c71 364 252 722 515 1020 57 64 77 94 81 123 28 172 408 612 657 760 96
57 186 81 268 73 36 -4 73 -7 81 -8 8 0 51 16 95 35 116 52 242 75 406 76 80
1 172 -5 222 -14z"/>
<path d="M2874 5344 c-98 -16 -200 -53 -260 -93 l-44 -30 -42 19 c-55 25 -90
25 -171 0 -128 -40 -352 -230 -523 -445 -141 -179 -184 -256 -184 -334 0 -31
-8 -45 -56 -91 -268 -264 -474 -675 -543 -1084 l-16 -99 -67 -27 c-97 -40
-157 -81 -237 -165 -76 -80 -137 -192 -162 -295 -22 -89 -17 -242 10 -330 37
-120 77 -187 171 -280 134 -135 267 -190 458 -190 94 0 102 -2 116 -23 9 -12
57 -78 108 -147 299 -404 732 -679 1238 -785 170 -36 504 -46 680 -21 599 87
1127 423 1444 918 l37 58 157 0 c182 0 251 13 362 68 111 54 233 178 288 292
93 198 94 385 1 578 -47 98 -154 217 -243 271 -68 41 -170 79 -239 89 l-50 7
-17 100 c-60 354 -218 693 -454 972 -41 49 -90 104 -110 122 -31 30 -36 41
-36 79 0 74 -63 179 -219 364 -150 178 -323 328 -447 385 -72 34 -174 39 -216
11 -26 -17 -28 -17 -83 17 -153 92 -419 128 -651 89z m416 -89 c112 -17 187
-38 252 -71 26 -13 70 -33 98 -44 53 -21 54 -20 17 33 -10 16 -17 30 -14 33 6
7 121 -33 179 -62 75 -38 155 -111 324 -296 87 -95 171 -186 187 -203 72 -74
92 -171 57 -275 -37 -111 -120 -257 -181 -321 -71 -73 -95 -76 -166 -21 -126
100 -161 184 -182 437 -5 70 -16 125 -27 150 l-19 40 -3 -210 c-3 -246 9 -304
78 -390 58 -73 63 -89 56 -178 -7 -86 -27 -153 -59 -203 -22 -33 -24 -34 -93
-34 -39 0 -91 -7 -114 -15 -23 -8 -44 -15 -46 -15 -2 0 -2 24 -1 53 2 47 0 52
-20 55 -14 2 -29 -5 -40 -20 -85 -109 -177 -160 -296 -166 -126 -7 -167 15
-167 88 0 36 8 50 66 116 121 139 147 201 103 245 -34 34 -89 51 -180 57 -105
6 -188 -15 -232 -59 -48 -48 -30 -88 111 -254 46 -53 52 -65 52 -106 0 -73
-20 -84 -144 -84 -96 0 -104 2 -164 34 -38 21 -85 58 -117 94 -68 75 -90 75
-90 -1 0 -28 -1 -52 -2 -52 -1 0 -14 5 -30 11 -15 6 -68 14 -118 18 l-90 6
-35 69 c-32 64 -35 79 -38 173 l-4 103 35 40 c84 92 96 143 100 403 3 176 1
215 -9 206 -22 -18 -33 -68 -44 -198 -18 -212 -54 -309 -145 -386 -87 -73
-111 -79 -164 -40 -53 38 -109 120 -170 245 -48 100 -56 124 -59 186 -6 102
14 140 150 287 197 213 331 347 384 383 47 33 213 99 223 89 2 -3 -8 -23 -23
-45 -14 -22 -24 -40 -22 -40 3 0 56 22 119 50 121 53 200 76 300 89 103 14
316 12 417 -4z m1365 -1107 c138 -182 237 -373 308 -593 32 -101 77 -292 77
-329 0 -14 -43 -16 -379 -16 l-379 0 -10 58 c-15 86 -49 148 -117 217 -63 64
-157 125 -194 125 -27 0 -27 0 8 63 33 58 51 134 51 208 0 28 3 49 8 47 58
-30 91 -39 125 -35 69 9 95 44 248 330 l74 138 53 -58 c29 -32 87 -102 127
-155z m-2906 64 c159 -295 177 -317 264 -316 31 0 62 7 78 17 l26 17 11 -92
c8 -66 20 -110 42 -154 35 -72 35 -74 13 -74 -65 0 -230 -141 -277 -236 -15
-31 -30 -80 -33 -109 l-6 -54 -381 -3 c-209 -2 -382 -3 -383 -3 -7 0 36 203
64 300 82 287 229 552 429 773 36 39 68 72 72 72 4 0 40 -62 81 -138z m663
-663 c165 -55 303 -209 303 -336 0 -58 -20 -93 -75 -130 -50 -34 -98 -40 -141
-16 l-36 20 -26 -23 c-48 -41 -147 -56 -218 -33 -19 6 -48 26 -65 45 l-31 34
-41 -17 c-92 -36 -147 18 -139 137 9 137 119 272 262 322 67 23 133 22 207 -3z
m1575 -18 c79 -39 175 -142 198 -210 23 -70 22 -167 -3 -200 -29 -39 -62 -47
-118 -28 -35 11 -50 13 -53 5 -28 -80 -206 -104 -297 -39 -35 24 -45 27 -54
16 -28 -34 -111 -26 -173 17 -63 45 -76 133 -32 223 49 102 192 217 301 245
68 17 165 5 231 -29z m-873 -126 c55 -17 223 -20 274 -6 37 11 38 13 -25 -76
-54 -78 -108 -110 -209 -128 -122 -21 -257 7 -322 68 -24 21 -102 131 -102
141 0 3 12 1 28 -5 41 -17 219 -14 267 4 22 9 40 16 40 16 0 1 22 -6 49 -14z
m202 -596 c56 -27 72 -58 49 -97 -25 -41 -55 -54 -86 -37 -55 32 -73 36 -97
26 -18 -9 -23 -18 -20 -38 3 -26 9 -29 84 -48 45 -11 92 -28 106 -37 65 -42
77 -163 23 -233 -76 -100 -264 -100 -340 -1 -31 41 -31 66 0 100 32 35 55 33
105 -9 62 -52 130 -46 130 11 0 23 -11 29 -110 59 -102 31 -140 74 -140 161 0
138 151 212 296 143z m-1930 -14 c64 -40 94 -92 94 -164 0 -129 -94 -211 -242
-211 l-48 0 0 -59 c0 -68 -12 -83 -67 -83 -26 0 -42 6 -55 22 -16 20 -18 46
-18 245 0 123 4 235 9 249 13 32 26 35 162 33 110 -2 118 -4 165 -32z m654 15
c14 -21 12 -94 -2 -108 -8 -8 -55 -12 -145 -12 l-133 0 0 -35 0 -35 89 0 c104
0 121 -10 121 -70 0 -60 -17 -70 -121 -70 l-89 0 0 -34 0 -34 132 -1 c77 -1
137 -6 145 -13 7 -6 13 -30 13 -54 0 -71 -15 -76 -223 -72 -129 2 -178 7 -190
17 -15 12 -17 43 -17 257 0 233 1 245 21 265 19 19 30 20 205 17 151 -2 186
-6 194 -18z m641 10 c14 -8 19 -21 19 -50 0 -51 -17 -60 -117 -60 l-78 0 0
-205 c0 -227 -1 -230 -64 -230 -70 0 -71 2 -71 231 l0 204 -84 0 c-95 0 -116
11 -116 60 0 58 9 60 261 60 140 0 238 -4 250 -10z m996 -17 c8 -10 13 -50 13
-105 l0 -88 95 0 95 0 0 100 c0 100 0 101 27 111 29 11 88 5 97 -10 3 -4 6
-120 6 -256 1 -277 1 -277 -65 -277 -59 0 -70 18 -70 122 l0 90 -92 0 -91 0
-4 -95 c-1 -52 -8 -99 -14 -105 -15 -15 -91 -15 -109 0 -13 10 -15 52 -15 259
0 135 4 251 8 257 19 29 98 27 119 -3z m837 15 c26 -8 62 -33 98 -68 46 -45
60 -66 73 -114 40 -138 -26 -291 -150 -347 -49 -23 -161 -25 -210 -5 -59 25
-132 102 -155 162 -42 113 -18 218 68 304 32 31 73 61 92 67 48 15 134 15 184
1z m652 -23 c66 -41 94 -92 94 -171 0 -119 -79 -192 -221 -202 l-68 -5 -3 -61
c-3 -54 -6 -62 -29 -73 -34 -16 -81 -3 -96 28 -15 29 -18 444 -4 483 13 32 26
35 162 33 110 -2 118 -4 165 -32z m-423 -911 c-6 -23 -149 -208 -221 -285
-218 -233 -526 -431 -818 -527 -756 -250 -1573 -35 -2105 555 -74 81 -182 223
-194 253 -5 13 209 15 1667 14 1038 0 1672 -4 1671 -10z"/>
<path d="M2605 4276 c-27 -13 -58 -32 -67 -42 -22 -25 -48 -87 -48 -115 0 -19
3 -18 39 14 43 38 120 67 181 67 48 0 127 -24 151 -46 18 -16 18 -15 9 17 -15
50 -41 81 -90 107 -57 28 -112 28 -175 -2z"/>
<path d="M3360 4278 c-25 -14 -52 -38 -62 -54 -17 -30 -36 -97 -21 -78 39 53
202 68 283 25 25 -13 58 -35 74 -50 l28 -26 -7 35 c-19 98 -88 158 -192 167
-48 4 -65 1 -103 -19z"/>
<path d="M2820 3755 c0 -8 7 -15 15 -15 8 0 15 7 15 15 0 8 -7 15 -15 15 -8 0
-15 -7 -15 -15z"/>
<path d="M3295 3761 c-7 -12 12 -24 25 -16 11 7 4 25 -10 25 -5 0 -11 -4 -15
-9z"/>
<path d="M2680 3715 c0 -9 5 -15 11 -13 6 2 11 8 11 13 0 5 -5 11 -11 13 -6 2
-11 -4 -11 -13z"/>
<path d="M3440 3715 c0 -8 7 -15 15 -15 8 0 15 7 15 15 0 8 -7 15 -15 15 -8 0
-15 -7 -15 -15z"/>
<path d="M2922 3619 c2 -6 8 -10 13 -10 5 0 11 4 13 10 2 6 -4 11 -13 11 -9 0
-15 -5 -13 -11z"/>
<path d="M3192 3619 c2 -6 8 -10 13 -10 5 0 11 4 13 10 2 6 -4 11 -13 11 -9 0
-15 -5 -13 -11z"/>
<path d="M4464 4036 c-8 -21 27 -76 48 -76 28 0 31 18 8 55 -23 37 -47 45 -56
21z"/>
<path d="M4575 3851 c-7 -12 25 -79 41 -85 26 -10 36 20 17 58 -16 34 -45 48
-58 27z"/>
<path d="M4666 3652 c-8 -14 17 -84 32 -89 26 -11 36 14 23 57 -8 28 -17 40
-31 40 -10 0 -21 -4 -24 -8z"/>
<path d="M4730 3426 c0 -38 18 -76 35 -76 37 0 25 93 -13 98 -18 3 -22 -2 -22
-22z"/>
<path d="M1631 4024 c-12 -15 -21 -35 -21 -45 0 -30 36 -23 60 11 38 54 1 85
-39 34z"/>
<path d="M1515 3830 c-19 -37 -19 -56 0 -64 17 -6 55 46 55 77 0 29 -38 20
-55 -13z"/>
<path d="M1424 3624 c-15 -36 -7 -64 18 -64 13 0 40 69 34 86 -10 26 -37 14
-52 -22z"/>
<path d="M1366 3428 c-12 -48 -7 -78 14 -78 14 0 22 11 30 40 6 22 8 45 5 50
-11 19 -43 10 -49 -12z"/>
<path d="M1192 2628 l3 -63 56 0 c67 0 89 15 89 61 0 45 -29 64 -98 64 l-53 0
3 -62z"/>
<path d="M4354 2671 c-36 -22 -64 -75 -64 -121 0 -111 120 -178 211 -117 80
54 73 199 -12 243 -39 20 -98 18 -135 -5z"/>
<path d="M4972 2628 l3 -63 58 2 c70 2 87 14 87 59 0 45 -29 64 -98 64 l-53 0
3 -62z"/>
<path d="M1875 1800 c-4 -6 1 -20 11 -31 17 -19 16 -21 -26 -64 -36 -37 -41
-45 -27 -51 12 -4 29 7 56 37 39 44 39 44 60 25 12 -11 24 -16 28 -12 4 4 -16
30 -44 57 -33 34 -53 47 -58 39z"/>
<path d="M4210 1765 l-34 -35 49 -50 c27 -28 52 -50 55 -50 3 0 23 16 45 34
32 28 38 37 28 47 -10 10 -18 8 -41 -14 -15 -15 -31 -27 -35 -27 -13 0 -7 23
10 42 11 13 13 22 6 29 -7 7 -14 5 -23 -6 -13 -16 -40 -21 -40 -7 0 5 11 19
25 32 30 28 32 40 7 40 -10 0 -33 -16 -52 -35z"/>
<path d="M4075 1646 l-29 -24 42 -56 c24 -31 46 -56 51 -56 16 0 21 13 10 27
-17 20 7 46 31 33 40 -22 58 4 20 28 -11 7 -20 19 -20 26 0 22 -28 46 -53 46
-12 0 -35 -11 -52 -24z m71 -17 c3 -6 -1 -18 -9 -27 -14 -13 -18 -13 -32 -2
-16 13 -15 15 1 27 22 16 31 16 40 2z"/>
<path d="M1978 1626 c-59 -31 -80 -64 -35 -52 31 7 67 -19 67 -50 0 -14 6 -24
14 -24 13 0 36 86 36 137 0 29 -12 28 -82 -11z m38 -43 c-10 -10 -19 5 -10 18
6 11 8 11 12 0 2 -7 1 -15 -2 -18z"/>
<path d="M3938 1553 c-21 -14 -38 -30 -38 -36 0 -5 17 -32 37 -61 20 -28 38
-53 39 -54 2 -2 23 10 48 27 30 21 43 36 39 46 -4 13 -10 12 -39 -6 -42 -26
-65 -15 -29 13 31 24 20 47 -13 29 -47 -25 -58 -5 -12 22 30 18 41 48 18 46
-7 0 -30 -12 -50 -26z"/>
<path d="M2131 1524 c-28 -35 -26 -69 4 -99 34 -35 71 -33 90 4 14 28 14 31
-7 45 -15 11 -25 13 -33 5 -7 -7 -6 -12 4 -18 14 -9 7 -31 -9 -31 -5 0 -17 11
-25 24 -32 49 23 89 67 49 29 -26 46 -1 19 26 -31 31 -84 28 -110 -5z"/>
<path d="M3823 1473 c2 -10 8 -25 11 -34 5 -11 -2 -19 -21 -28 -16 -7 -29 -9
-31 -3 -7 23 -30 44 -40 38 -15 -9 47 -136 66 -136 14 0 13 14 -2 51 -5 11 2
19 21 28 16 7 29 9 31 3 7 -23 30 -44 40 -38 15 9 -47 136 -66 136 -9 0 -12
-7 -9 -17z"/>
<path d="M2300 1420 c-16 -33 -30 -64 -30 -69 0 -13 88 -46 98 -37 8 9 -26 36
-45 36 -18 0 -16 14 7 60 11 22 20 46 20 55 0 31 -21 13 -50 -45z"/>
<path d="M2461 1353 c-25 -67 -26 -76 -12 -81 11 -4 45 65 57 114 4 17 2 24
-9 24 -9 0 -23 -23 -36 -57z"/>
<path d="M3556 1374 c-32 -31 -6 -74 45 -74 20 0 29 -5 29 -16 0 -13 -7 -15
-30 -10 -23 4 -30 2 -30 -10 0 -34 71 -29 90 6 17 32 -4 60 -45 60 -24 0 -35
5 -35 15 0 9 9 15 25 15 16 0 25 6 25 15 0 20 -54 20 -74 -1z"/>
<path d="M2556 1328 c-22 -78 -23 -93 -7 -93 8 0 19 18 26 40 l11 40 23 -52
c36 -80 52 -68 77 55 5 25 3 32 -9 32 -10 0 -18 -13 -23 -35 -3 -19 -9 -35
-13 -35 -3 0 -16 23 -28 50 -12 28 -26 50 -32 50 -5 0 -16 -24 -25 -52z"/>
<path d="M3425 1345 c-5 -2 -22 -6 -37 -9 l-26 -6 15 -67 c9 -38 17 -70 19
-72 2 -2 29 1 59 8 66 15 70 38 6 33 -45 -4 -57 14 -16 24 38 9 32 36 -7 32
-47 -5 -46 19 1 27 25 4 41 12 41 21 0 13 -29 18 -55 9z"/>
<path d="M2755 1318 c-2 -7 -8 -39 -13 -70 -10 -64 -13 -61 66 -73 33 -5 42
-4 42 8 0 17 -21 27 -56 27 -15 0 -24 6 -24 16 0 11 8 14 32 12 42 -4 50 20 8
28 -45 10 -31 29 18 25 31 -2 42 1 42 12 0 23 -107 37 -115 15z"/>
<path d="M3195 1295 c-60 -59 -1 -156 76 -125 58 24 60 113 3 139 -37 16 -52
14 -79 -14z m85 -39 c10 -28 -6 -56 -33 -56 -47 0 -63 48 -26 74 26 17 48 11
59 -18z"/>
<path d="M2995 1285 c-31 -30 -32 -64 -4 -99 18 -23 28 -27 63 -24 39 3 41 4
44 39 3 31 -1 37 -19 42 -12 3 -26 4 -31 1 -13 -9 -9 -24 7 -24 8 0 15 -7 15
-15 0 -20 -34 -19 -54 1 -20 19 -20 24 0 52 13 18 22 22 44 17 34 -7 48 10 21
24 -32 17 -60 13 -86 -14z"/>
</g>
</svg>
